<?xml version="1.0" encoding="UTF-8"?>
<svg width="133px" height="25px" viewBox="0 0 133 25" version="1.1" xmlns="http://www.w3.org/2000/svg" xmlns:xlink="http://www.w3.org/1999/xlink">
    <!-- Generator: Sketch 46.1 (44463) - http://www.bohemiancoding.com/sketch -->
    <title>FAD.co.uk_logo</title>
    <desc>Created with Sketch.</desc>
    <defs></defs>
    <g id="Page-1" stroke="none" stroke-width="1" fill="none" fill-rule="evenodd">
        <g id="Blog-tablet---homepage" transform="translate(-622.000000, -20.000000)" fill-rule="nonzero" fill="#FFFFFF">
            <g id="Navigation-Tablet" transform="translate(11.000000, 19.000000)">
                <g id="FAD.co.uk_logo" transform="translate(611.000000, 1.000000)">
                    <path d="M131.376459,4.43090924 C131.642314,4.43090924 131.686623,4.51952743 131.686623,4.6967638 L131.730932,5.00692745 L132.484186,5.00692745 L132.484186,2.70285464 L131.686623,2.70285464 L131.642314,3.23456375 L131.642314,3.23456375 L130.534586,3.23456375 C130.490277,3.01301829 130.445968,2.79147282 130.401659,2.56992736 L132.439877,1.46220005 L132.439877,0.0443090924 L131.642314,0.0443090924 L131.598005,0.620327294 L129.86995,1.55081824 C129.471168,1.06341822 128.983768,0.797563664 128.274823,0.708945479 L128.274823,0.265854555 L127.477259,0.265854555 L127.477259,2.25976371 L128.230514,2.25976371 L128.230514,1.90529097 C128.230514,1.7723637 128.319132,1.68374551 128.540677,1.7280546 C129.161004,1.94960007 129.559786,2.52561827 129.604095,3.19025466 L125.350422,3.19025466 L125.350422,4.91830926 L126.147986,4.91830926 L126.147986,4.56383652 C126.147986,4.38660015 126.236604,4.34229106 126.413841,4.34229106 L131.376459,4.43090924 Z M131.730932,5.62725474 L131.686623,5.98172748 C131.686623,6.15896385 131.598005,6.20327294 131.420768,6.20327294 L127.565877,6.20327294 L127.565877,7.88701845 L128.363441,7.88701845 L128.363441,7.57685481 C128.363441,7.39961844 128.452059,7.35530934 128.673604,7.35530934 L130.756132,7.35530934 C131.287841,7.35530934 131.730932,7.70978208 131.730932,8.37441847 C131.730932,8.99474576 131.287841,9.08336395 130.667514,9.08336395 L127.565877,9.08336395 L127.565877,10.7671095 L128.363441,10.7671095 L128.363441,10.4569458 C128.363441,10.2797094 128.452059,10.2354004 128.629295,10.2354004 L130.889059,10.2354004 C132.041095,10.2354004 132.572805,9.70369124 132.572805,8.72889121 C132.572805,8.10856392 132.30695,7.48823662 131.81955,7.17807297 L132.439877,7.17807297 L132.439877,5.62725474 L131.730932,5.62725474 L131.730932,5.62725474 Z M131.952477,12.4065459 C132.351259,12.4065459 132.661423,12.1850004 132.661423,11.6976004 C132.661423,11.2545095 132.351259,11.032964 131.952477,11.032964 C131.553695,11.032964 131.243532,11.2988186 131.243532,11.7419095 C131.243532,12.1406913 131.553695,12.4065459 131.952477,12.4065459 L131.952477,12.4065459 Z M130.002877,17.4134733 C131.775241,17.4134733 132.617114,16.5716006 132.617114,15.2423278 C132.617114,13.9573641 131.730932,12.938255 129.86995,12.938255 C127.610186,12.938255 127.388641,14.400455 127.388641,15.1094005 C127.388641,16.0842006 127.964659,17.4134733 130.002877,17.4134733 L130.002877,17.4134733 Z M131.775241,15.1537096 C131.775241,16.0842006 130.800441,16.2171278 129.86995,16.2171278 C128.939459,16.2171278 128.274823,15.9069642 128.274823,15.1537096 C128.274823,14.400455 128.939459,14.1346005 130.047186,14.1346005 C131.066295,14.0902914 131.775241,14.400455 131.775241,15.1537096 L131.775241,15.1537096 Z M131.730932,19.4516916 C131.730932,20.2935643 131.021986,20.6923462 129.958568,20.6923462 C128.850841,20.6923462 128.274823,20.2935643 128.274823,19.5403098 C128.274823,19.4073825 128.274823,19.2744552 128.319132,19.1415279 C128.363441,18.9642916 128.452059,18.9199825 128.673604,18.9199825 L129.161004,18.9199825 L129.072386,18.0338006 L127.787423,18.0338006 C127.521568,18.4768915 127.388641,18.9642916 127.388641,19.5403098 C127.388641,20.6480371 128.097586,21.8443826 130.091495,21.8443826 C131.730932,21.8443826 132.661423,21.0025098 132.661423,19.5846189 C132.661423,18.8756734 132.395568,18.2996552 132.085405,17.9008733 L131.33215,18.2996552 C131.598005,18.698437 131.730932,19.0529097 131.730932,19.4516916 L131.730932,19.4516916 Z M131.952477,23.971219 C132.351259,23.971219 132.661423,23.7496735 132.661423,23.2622735 C132.661423,22.8191826 132.351259,22.553328 131.952477,22.553328 C131.553695,22.553328 131.243532,22.8191826 131.243532,23.2622735 C131.243532,23.7053645 131.553695,23.971219 131.952477,23.971219 L131.952477,23.971219 Z" id="Shape"></path>
                    <path d="M100.803185,13.2927277 L102.752785,7.48823662 L102.797094,7.48823662 L104.702385,13.2927277 L100.803185,13.2927277 Z M108.512967,16.7488369 L104.259294,5.36140018 L99.695458,5.36140018 L99.695458,6.91221842 L100.891803,7.0451457 L97.4356943,16.2614369 C97.302767,16.6159097 97.2141488,16.793146 96.8596761,16.793146 L96.1950397,16.8374551 L96.1950397,18.4768915 L101.113349,18.4768915 L101.113349,16.7488369 L99.7840762,16.793146 L100.315785,15.1537096 L105.234095,15.1537096 L105.677185,16.2614369 C105.810113,16.7045278 105.721495,16.7488369 105.278404,16.7488369 L104.569458,16.8374551 L104.569458,18.4768915 L109.886549,18.4768915 L109.886549,16.7488369 L108.512967,16.7488369 L108.512967,16.7488369 Z" id="Shape"></path>
                    <path d="M117.197549,16.7488369 L115.247949,16.7488369 L115.247949,7.26669116 L116.931695,7.26669116 C119.191459,7.26669116 121.008131,8.33010938 121.008131,11.8748368 C121.008131,15.0650914 119.545931,16.7488369 117.197549,16.7488369 M117.064622,5.36140018 L111.393058,5.36140018 L111.393058,7.0008366 L112.633713,7.0451457 L112.633713,16.2171278 C112.633713,16.6159097 112.412168,16.7488369 112.057695,16.7488369 L111.393058,16.793146 L111.393058,18.4325825 L117.197549,18.4325825 C120.565041,18.4325825 123.622368,16.5716006 123.622368,11.3874368 C123.578059,7.35530934 121.052441,5.36140018 117.064622,5.36140018" id="Shape"></path>
                    <g id="Group">
                        <path d="M48.7400017,7.35530934 L46.8790198,7.35530934 L46.8790198,16.7488369 L49.0501653,16.7488369 C51.3985472,16.7488369 52.9050564,15.1094005 52.9050564,11.9191459 C52.8607473,8.37441847 50.9997654,7.35530934 48.7400017,7.35530934 Z" id="Shape"></path>
                        <polygon id="Shape" points="63.273384 7.66547299 61.2794748 13.3370368 65.2229841 13.3370368 63.3176931 7.66547299"></polygon>
                        <path d="M25.5663463,7.35530934 L24.0155281,7.35530934 L24.0155281,11.5646731 L25.8322009,11.5646731 C27.6045646,11.5646731 28.4464373,10.7671095 28.4464373,9.3935276 C28.4907464,7.57685481 27.3830191,7.35530934 25.5663463,7.35530934 Z" id="Shape"></path>
                        <path d="M93.2706396,10.1467822 L85.2506938,0.974800034 C84.7189847,0.354472739 83.877112,0 83.0352392,0 L13.0268732,0 L9.57076397,0 L0,0 L0,24.1484554 L9.57076397,24.1484554 L13.0268732,24.1484554 L83.0352392,24.1484554 C84.0986574,24.1484554 84.9848393,23.6167463 85.5165484,22.8191826 L93.3149487,13.5585823 C94.1125123,12.5394732 94.1125123,11.1215822 93.2706396,10.1467822 Z M17.723637,8.72889121 L15.5524914,8.86181849 L15.5524914,8.06425482 C15.5524914,7.66547299 15.5081824,7.44392753 14.9321642,7.44392753 L11.2988186,7.44392753 L11.2988186,10.9886549 L16.4829824,10.9886549 L16.4829824,13.0268732 L11.2988186,13.0268732 L11.2988186,16.9260733 L13.1598005,16.9703824 L13.1598005,18.6541279 L7.39961844,18.6541279 L7.39961844,17.0590006 L8.10856392,17.0146915 C8.46303666,16.9703824 8.72889121,16.8374551 8.72889121,16.4386733 L8.72889121,7.17807297 L7.53254571,7.13376388 L7.53254571,5.45001837 L17.723637,5.45001837 L17.723637,8.72889121 L17.723637,8.72889121 Z M32.4785648,18.6541279 L27.2500918,18.6541279 L27.2500918,17.0590006 L27.8704191,17.0146915 C28.3578192,16.9703824 28.4464373,16.793146 28.269201,16.3943642 L27.2944009,14.400455 C26.9842373,13.7801277 26.7183827,13.4699641 25.9651282,13.4699641 L24.0598372,13.4699641 L24.0598372,16.9260733 L25.4334191,16.9703824 L25.4334191,18.6541279 L20.1606371,18.6541279 L20.1606371,17.0590006 L20.8695825,17.0146915 C21.2240553,16.9703824 21.4899098,16.8374551 21.4899098,16.4386733 L21.4899098,7.17807297 L20.2935643,7.13376388 L20.2935643,5.45001837 L26.0537464,5.45001837 C29.1553828,5.45001837 31.1049829,6.4248184 31.1049829,9.12767304 C31.1049829,11.1215822 29.731401,12.1850004 28.5793646,12.6280913 C29.1553828,12.8496368 29.4655465,13.1598005 29.7757101,13.8244368 L31.2822193,16.9703824 L32.4785648,17.0146915 L32.4785648,18.6541279 L32.4785648,18.6541279 Z M40.1440377,7.0451457 L39.4350923,7.08945479 C39.0806195,7.13376388 38.814765,7.26669116 38.814765,7.70978208 L38.814765,16.8817642 L40.0111105,16.9260733 L40.0111105,18.6098188 L34.9155648,18.6098188 L34.9155648,17.0146915 L35.6245103,16.9703824 C36.0232921,16.9260733 36.2448376,16.793146 36.2448376,16.305746 L36.2448376,7.13376388 L35.0484921,7.08945479 L35.0484921,5.40570928 L40.1440377,5.40570928 L40.1440377,7.0451457 Z M48.9615471,18.6541279 L42.9798197,18.6541279 L42.9798197,17.0590006 L43.6887651,17.0146915 C44.0432379,16.9703824 44.3090924,16.8374551 44.3090924,16.4386733 L44.3090924,7.17807297 L43.1127469,7.13376388 L43.1127469,5.45001837 L48.872929,5.45001837 C52.9050564,5.45001837 55.4749837,7.44392753 55.4749837,11.6089822 C55.4306746,16.793146 52.3733473,18.6541279 48.9615471,18.6541279 Z M70.3185297,18.698437 L64.8685113,18.698437 L64.8685113,17.1033097 L65.666075,17.0590006 C66.1091659,17.0146915 66.3307114,16.8817642 66.153475,16.4829824 L65.7103841,15.2423278 L60.7920748,15.2423278 L60.1717475,17.0146915 L61.4567112,17.0590006 L61.4567112,18.7427461 L56.582711,18.7427461 L56.582711,17.1476188 L57.2916565,17.1033097 C57.6461293,17.0590006 57.7790565,16.9260733 57.9119838,16.5272915 L61.3237839,7.26669116 L59.9945112,7.13376388 L59.9945112,5.53863655 L64.8242022,5.53863655 L69.1221842,17.0146915 L69.1221842,17.0146915 L70.3185297,17.0590006 L70.3185297,18.698437 L70.3185297,18.698437 Z M81.5287301,7.0451457 L80.9084028,7.08945479 C80.55393,7.13376388 80.4210028,7.31100025 80.1994573,7.66547299 L76.8762754,13.6028914 L76.8762754,16.9260733 L78.5157118,16.9703824 L78.5157118,18.6541279 L72.5782934,18.6541279 L72.5782934,17.0590006 L73.6860207,17.0146915 C74.0848026,17.0146915 74.306348,16.8374551 74.306348,16.4386733 L74.306348,13.6028914 L70.7173115,7.17807297 L69.7425115,7.13376388 L69.7425115,5.45001837 L74.8823662,5.45001837 L74.8823662,7.0451457 L74.2620389,7.08945479 C73.818948,7.13376388 73.6860207,7.44392753 73.9075662,7.88701845 L75.6799299,11.3431277 L75.7685481,11.3431277 L78.0726209,7.17807297 L77.0092027,7.08945479 L77.0092027,5.40570928 L81.5287301,5.40570928 L81.5287301,7.0451457 Z M89.5043667,13.5142732 C88.5295667,13.5142732 87.732003,12.7610186 87.732003,11.8305277 C87.732003,10.9000367 88.5295667,10.1467822 89.5043667,10.1467822 C90.4791668,10.1467822 91.2767304,10.9000367 91.2767304,11.8305277 C91.2767304,12.7610186 90.4791668,13.5142732 89.5043667,13.5142732 Z" id="Shape"></path>
                    </g>
                </g>
            </g>
        </g>
    </g>
</svg>