<?xml version="1.0" encoding="UTF-8"?>
<svg width="62px" height="46px" viewBox="0 0 62 46" version="1.1" xmlns="http://www.w3.org/2000/svg" xmlns:xlink="http://www.w3.org/1999/xlink">
    <!-- Generator: Sketch 46.1 (44463) - http://www.bohemiancoding.com/sketch -->
    <title>FADblog_logo</title>
    <desc>Created with Sketch.</desc>
    <defs></defs>
    <g id="Page-1" stroke="none" stroke-width="1" fill="none" fill-rule="evenodd">
        <g id="Blog-tablet---homepage" transform="translate(-11.000000, -20.000000)" fill-rule="nonzero" fill="#FFFFFF">
            <g id="Navigation-Tablet" transform="translate(11.000000, 19.000000)">
                <g id="Navigation">
                    <g id="FADblog_logo" transform="translate(0.000000, 1.000000)">
                        <g id="Group">
                            <path d="M45.9697368,17.3191305 L41.6882417,5.27943756 L37.0848297,5.27943756 L37.0848297,6.92121388 L38.308114,7.04998065 L34.8636029,16.7718718 C34.7026445,17.1581721 34.6382611,17.3191305 34.2841525,17.3513222 L33.6081269,17.4157056 L33.6081269,19.154057 L38.5334559,19.154057 L38.5334559,17.3513222 L37.1814048,17.4157056 L37.7286636,15.7095459 L42.6218008,15.7095459 L43.0724845,16.8684469 C43.233443,17.3191305 43.1368679,17.3513222 42.6861842,17.4157056 L42.0101587,17.4478973 L42.0101587,19.1862487 L47.3217879,19.1862487 L47.3217879,17.3835139 L45.9697368,17.3191305 L45.9697368,17.3191305 Z M38.2437307,13.6492776 L40.2074239,7.53285604 L40.2718073,7.53285604 L42.1711171,13.6492776 L38.2437307,13.6492776 Z" id="Shape"></path>
                            <path d="M54.532727,5.27943756 L48.8347975,5.27943756 L48.8347975,6.98559727 L50.0580818,7.04998065 L50.0580818,16.7718718 C50.0580818,17.1903638 49.8327399,17.3191305 49.4786313,17.3513222 L48.8347975,17.4157056 L48.8347975,19.154057 L54.6293021,19.154057 C58.0094298,19.154057 61.0676406,17.1903638 61.0676406,11.7177761 C61.0676406,7.37189757 58.5244969,5.27943756 54.532727,5.27943756 M54.6614938,17.3191305 L52.7299923,17.3191305 L52.7299923,7.33970588 L54.4039603,7.33970588 C56.6573787,7.33970588 58.4923052,8.46641512 58.4923052,12.2006514 C58.4923052,15.5163958 57.0114874,17.3191305 54.6614938,17.3191305" id="Shape"></path>
                            <path d="M31.0971749,10.2369582 L23.4355521,0.965750774 C22.920485,0.321916925 22.1478844,0 21.3109004,0 L12.5225684,0 L9.20682405,0 L0.0643833849,0 L0.0643833849,24.3691112 L9.20682405,24.3691112 L12.5225684,24.3691112 L21.3109004,24.3691112 C22.3088429,24.3691112 23.2102103,23.8218524 23.660894,23.0170601 L31.1293666,13.6814693 C31.9341589,12.6513351 31.9341589,11.2349007 31.0971749,10.2369582 Z M18.4780315,8.65956527 L16.3211881,8.82052374 L16.3211881,7.98353973 C16.3211881,7.59723942 16.2889964,7.33970588 15.7095459,7.33970588 L12.039693,7.33970588 L12.039693,11.0739422 L17.2547472,11.0739422 L17.2547472,13.2307856 L12.039693,13.2307856 L12.039693,17.3835139 L13.9390028,17.4478973 L13.9390028,19.2506321 L8.14449819,19.2506321 L8.14449819,17.5444724 L8.85271543,17.480089 C9.20682405,17.4478973 9.46435759,17.3191305 9.46435759,16.9006385 L9.46435759,7.04998065 L8.24107327,6.98559727 L8.24107327,5.18286249 L18.5102232,5.18286249 L18.5102232,8.65956527 L18.4780315,8.65956527 Z M26.6547214,13.6492776 C25.7211623,13.6492776 24.9485617,12.876677 24.9485617,11.9753096 C24.9485617,11.0417505 25.7211623,10.3013416 26.6547214,10.3013416 C27.5882804,10.3013416 28.3608811,11.0417505 28.3608811,11.9753096 C28.3286894,12.9088687 27.5882804,13.6492776 26.6547214,13.6492776 Z" id="Shape"></path>
                        </g>
                        <g id="Group" transform="translate(0.327770, 30.648866)">
                            <path d="M0.193758179,0.452102417 L4.42414508,0.452102417 C5.00541962,0.452102417 5.58669416,0.516688477 6.13567566,0.645860596 C6.68465717,0.775032715 7.16905262,0.968790894 7.588862,1.25942816 C8.00867139,1.55006543 8.36389472,1.90528876 8.62223896,2.35739118 C8.8805832,2.80949359 9.00975532,3.3584751 9.00975532,4.03662873 C9.00975532,4.81166144 8.78370411,5.48981507 8.36389472,6.03879657 C7.94408533,6.58777808 7.29822474,6.97529444 6.52319202,7.13675959 L6.52319202,7.16905262 C7.52427594,7.23363868 8.29930866,7.588862 8.8805832,8.2347226 C9.46185773,8.84829017 9.72020197,9.68790894 9.72020197,10.7212859 C9.72020197,10.9473371 9.65561591,11.2702674 9.55873682,11.7223698 C9.4295647,12.1744722 9.20351349,12.5942816 8.84829017,13.046384 C8.49306684,13.4661934 7.97637836,13.8537098 7.29822474,14.1766401 C6.62007111,14.4995704 5.71586628,14.6610355 4.58561023,14.6610355 L0.258344238,14.6610355 L0.258344238,0.452102417 L0.193758179,0.452102417 Z M1.64694452,6.65236414 L4.5533172,6.65236414 C4.90854053,6.65236414 5.23147083,6.62007111 5.58669416,6.52319202 C5.94191748,6.42631293 6.23255475,6.29714081 6.52319202,6.10338263 C6.81382929,5.90962445 7.00758747,5.65128022 7.20134565,5.32834992 C7.3628108,5.00541962 7.45968988,4.61790326 7.45968988,4.16580084 C7.45968988,4.0043357 7.42739685,3.81057752 7.3628108,3.55223328 C7.29822474,3.29388904 7.16905262,3.00325177 6.97529444,2.74490753 C6.78153626,2.48656329 6.45860596,2.26051209 6.0710896,2.06675391 C5.68357325,1.87299573 5.13459174,1.77611664 4.45643811,1.77611664 L1.67923755,1.77611664 L1.67923755,6.65236414 L1.64694452,6.65236414 Z M1.64694452,13.3047283 L4.42414508,13.3047283 C4.94083356,13.3047283 5.42522901,13.2401422 5.87733142,13.1432631 C6.32943384,13.046384 6.7169502,12.8849189 7.07217353,12.6588677 C7.39510382,12.4328165 7.65344806,12.1744722 7.84720624,11.8192489 C8.04096442,11.4640256 8.13784351,11.0765092 8.13784351,10.6244068 C8.13784351,9.68790894 7.84720624,9.00975532 7.23363868,8.5576529 C6.62007111,8.10555048 5.7481593,7.87949927 4.58561023,7.87949927 L1.64694452,7.87949927 L1.64694452,13.3047283 L1.64694452,13.3047283 Z" id="Shape"></path>
                            <polygon id="Shape" points="17.1475988 13.3047283 23.7676699 13.3047283 23.7676699 14.6287425 15.7267055 14.6287425 15.7267055 0.452102417 17.1798919 0.452102417 17.1798919 13.3047283"></polygon>
                            <path d="M42.4007481,7.52427594 C42.4007481,8.58994593 42.20699,9.59102985 41.8517666,10.4952347 C41.4642503,11.3994395 40.9475618,12.1744722 40.3017012,12.8526259 C39.6558406,13.5307795 38.8485149,14.0151749 37.94431,14.4026913 C37.0401052,14.7902076 36.0713143,14.9516728 35.0056443,14.9516728 C33.9399743,14.9516728 32.9711834,14.7579146 32.0669786,14.4026913 C31.1627738,14.0151749 30.387741,13.4984865 29.7095874,12.8526259 C29.0314338,12.2067653 28.5470383,11.3994395 28.159522,10.4952347 C27.7720056,9.59102985 27.6105405,8.58994593 27.6105405,7.52427594 C27.6105405,6.45860596 27.8042987,5.45752204 28.159522,4.5533172 C28.5470383,3.64911237 29.0637268,2.87407965 29.7095874,2.19592603 C30.355448,1.5177724 31.1627738,1.03337695 32.0669786,0.645860596 C32.9711834,0.258344238 33.9399743,0.0968790894 35.0056443,0.0968790894 C36.0713143,0.0968790894 37.0401052,0.290637268 37.94431,0.645860596 C38.8485149,1.03337695 39.6235476,1.55006543 40.3017012,2.19592603 C40.9798548,2.84178662 41.4642503,3.64911237 41.8517666,4.5533172 C42.20699,5.45752204 42.4007481,6.45860596 42.4007481,7.52427594 Z M40.8506827,7.52427594 C40.8506827,6.7169502 40.7215106,5.94191748 40.4631663,5.1991778 C40.2048221,4.45643811 39.8173057,3.81057752 39.3006173,3.26159601 C38.7839288,2.7126145 38.2026543,2.26051209 37.4599146,1.90528876 C36.7494679,1.58235846 35.9098491,1.42089331 35.0056443,1.42089331 C34.1014395,1.42089331 33.2941137,1.58235846 32.551374,1.90528876 C31.8409274,2.22821906 31.2273598,2.68032147 30.7106713,3.26159601 C30.2262759,3.81057752 29.8387595,4.48873114 29.5481223,5.1991778 C29.289778,5.94191748 29.1606059,6.7169502 29.1606059,7.52427594 C29.1606059,8.33160169 29.289778,9.1066344 29.5481223,9.84937409 C29.8064665,10.5921138 30.1939829,11.2379744 30.7106713,11.7869559 C31.2273598,12.3359374 31.8086344,12.7880398 32.551374,13.1432631 C33.2618207,13.4661934 34.1014395,13.6599516 35.0056443,13.6599516 C35.9098491,13.6599516 36.7171749,13.4984865 37.4599146,13.1432631 C38.1703612,12.8203328 38.7839288,12.3682304 39.3006173,11.7869559 C39.7850127,11.2379744 40.1725291,10.5598207 40.4631663,9.84937409 C40.7538036,9.13892743 40.8506827,8.33160169 40.8506827,7.52427594 Z" id="Shape"></path>
                            <path d="M58.6441421,3.0355448 C58.1597467,2.51885632 57.5784721,2.13133997 56.9326115,1.8407027 C56.2867509,1.55006543 55.4794252,1.38860028 54.6075134,1.38860028 C53.7033086,1.38860028 52.8959828,1.55006543 52.1532431,1.87299573 C51.4427965,2.19592603 50.8292289,2.64802844 50.3125404,3.22930298 C49.795852,3.77828449 49.4406286,4.45643811 49.1499914,5.16688477 C48.8593541,5.87733142 48.762475,6.68465717 48.762475,7.49198291 C48.762475,8.29930866 48.8916471,9.07434137 49.1499914,9.81708106 C49.4083356,10.5598207 49.795852,11.2056813 50.3125404,11.7546628 C50.7969359,12.3036444 51.4105034,12.7557468 52.1532431,13.1109701 C52.8636898,13.4339004 53.7033086,13.6276586 54.6075134,13.6276586 C55.3502531,13.6276586 56.0606997,13.5307795 56.7065603,13.3693143 C57.384714,13.1755562 57.9982815,12.949505 58.51497,12.6265747 L58.51497,7.87949927 L55.1242019,7.87949927 L55.1242019,6.55548505 L59.9358633,6.55548505 L59.9358633,13.4984865 C59.1285376,13.9505889 58.2566258,14.3381052 57.2878349,14.5641564 C56.319044,14.8225007 55.4148391,14.9193798 54.5429273,14.9193798 C53.4772574,14.9193798 52.5084665,14.7256216 51.6042616,14.3703983 C50.7000568,13.9828819 49.9250241,13.4661934 49.2468705,12.8203328 C48.6010099,12.1744722 48.0843214,11.3671465 47.696805,10.4629417 C47.3092887,9.55873682 47.1478235,8.5576529 47.1478235,7.49198291 C47.1478235,6.42631293 47.3415817,5.42522901 47.696805,4.52102417 C48.0843214,3.61681934 48.6010099,2.84178662 49.2468705,2.163633 C49.892731,1.5177724 50.7000568,1.00108392 51.6042616,0.613567566 C52.5084665,0.226051209 53.4772574,0.0645860596 54.5429273,0.0645860596 C55.6731834,0.0645860596 56.6419743,0.226051209 57.481593,0.548981507 C58.2889188,0.871911805 59.0316585,1.32401422 59.6775191,1.96987482 L58.6441421,3.0355448 Z" id="Shape"></path>
                        </g>
                    </g>
                </g>
            </g>
        </g>
    </g>
</svg>