<?xml version="1.0" encoding="UTF-8"?>
<svg width="67px" height="67px" viewBox="0 0 67 67" version="1.1" xmlns="http://www.w3.org/2000/svg" xmlns:xlink="http://www.w3.org/1999/xlink">
    <!-- Generator: Sketch 46.1 (44463) - http://www.bohemiancoding.com/sketch -->
    <title>Ribbon featured ad</title>
    <desc>Created with Sketch.</desc>
    <defs></defs>
    <g id="Page-1" stroke="none" stroke-width="1" fill="none" fill-rule="evenodd">
        <g id="Blog-tablet---homepage" transform="translate(-7.000000, -155.000000)">
            <g id="Ribbon-featured-ad" transform="translate(7.000000, 155.000000)">
                <path d="M25.7444041,7.10542736e-15 L66.0132271,7.10542736e-15 L66.0132271,0.0890075788 L-8.65973959e-15,66.1022347 L0,25.7444041 L25.7444041,1.77635684e-15 Z" id="Rectangle-150" fill="#31C5F2"></path>
                <polygon id="Rectangle-154-Copy" fill="#4A4A4A" points="66.5822912 0 66.5822912 3.58973597 63 3.58973597"></polygon>
                <polygon id="Rectangle-155-Copy" fill="#4A4A4A" points="-2.20388338e-16 66.6066946 3.5992147 66.6066946 3.5992147 63"></polygon>
                <g id="stars-copy" stroke-width="1" transform="translate(17.792683, 19.493902) rotate(-45.000000) translate(-17.792683, -19.493902) translate(-1.000000, 15.000000)" fill="#FFFFFF">
                    <polygon id="Star-1" points="3.76020408 6.7 1.99205008 7.73520693 2.32973744 5.54260347 0.899270806 3.98979307 2.87612708 3.66989653 3.76020408 1.675 4.64428108 3.66989653 6.62113736 3.98979307 5.19067072 5.54260347 5.52835809 7.73520693"></polygon>
                    <polygon id="Star-2" points="10.9045918 6.490625 8.91541858 7.6552328 9.29531687 5.1885539 7.6860419 3.4416422 9.91000521 3.0817586 10.9045918 0.8375 11.8991785 3.0817586 14.1231418 3.4416422 12.5138668 5.1885539 12.8937651 7.6552328"></polygon>
                    <polygon id="Star-4" points="19.5530612 6.28125 17.3428687 7.57525866 17.7649779 4.83450433 15.9768946 2.89349134 18.447965 2.49362067 19.5530612 1.59655487e-13 20.6581575 2.49362067 23.1292278 2.89349134 21.3411445 4.83450433 21.7632537 7.57525866"></polygon>
                    <polygon id="Star-3" points="27.4494898 6.490625 25.4603165 7.6552328 25.8402148 5.1885539 24.2309399 3.4416422 26.4549032 3.0817586 27.4494898 0.8375 28.4440764 3.0817586 30.6680397 3.4416422 29.0587648 5.1885539 29.4386631 7.6552328"></polygon>
                    <polygon id="Star-5" points="33.8418367 6.7 32.0736827 7.73520693 32.4113701 5.54260347 30.9809035 3.98979307 32.9577597 3.66989653 33.8418367 1.675 34.7259137 3.66989653 36.70277 3.98979307 35.2723034 5.54260347 35.6099907 7.73520693"></polygon>
                </g>
                <path d="M2,29.9888 L2,23.4368 C2,23.1594653 2.13866528,23.0208 2.416,23.0208 L5.8896,23.0208 C6.09760104,23.0208 6.2016,23.1941316 6.2016,23.5408 L6.2016,23.8632 C6.2016,24.2098684 6.09760104,24.3832 5.8896,24.3832 L3.6016,24.3832 L3.6016,25.9016 L5.8168,25.9016 C6.02480104,25.9016 6.1288,26.0749316 6.1288,26.4216 L6.1288,26.744 C6.1288,27.0906684 6.02480104,27.264 5.8168,27.264 L3.6016,27.264 L3.6016,29.9888 C3.6016,30.2106678 3.39360208,30.3216 2.9776,30.3216 L2.624,30.3216 C2.20799792,30.3216 2,30.2106678 2,29.9888 L2,29.9888 Z M7.2312,29.8848 L7.2312,23.4368 C7.2312,23.1594653 7.36986528,23.0208 7.6472,23.0208 L11.4536,23.0208 C11.661601,23.0208 11.7656,23.1941316 11.7656,23.5408 L11.7656,23.8632 C11.7656,24.2098684 11.661601,24.3832 11.4536,24.3832 L8.8328,24.3832 L8.8328,25.8912 L11.1728,25.8912 C11.380801,25.8912 11.4848,26.0645316 11.4848,26.4112 L11.4848,26.7336 C11.4848,27.0802684 11.380801,27.2536 11.1728,27.2536 L8.8328,27.2536 L8.8328,28.9384 L11.464,28.9384 C11.672001,28.9384 11.776,29.1117316 11.776,29.4584 L11.776,29.7808 C11.776,30.1274684 11.672001,30.3008 11.464,30.3008 L7.6472,30.3008 C7.36986528,30.3008 7.2312,30.1621347 7.2312,29.8848 L7.2312,29.8848 Z M12.192,30.0928 C12.192,30.0650665 12.2058665,30.0026672 12.2336,29.9056 L14.5216,23.2184 C14.5770669,23.0727993 14.774665,23 15.1144,23 L15.6552,23 C15.994935,23 16.1925331,23.0727993 16.248,23.2184 L18.536,29.9056 C18.5568001,29.9749337 18.5672,30.0373331 18.5672,30.0928 C18.5672,30.2453341 18.3938684,30.3216 18.0472,30.3216 L17.5896,30.3216 C17.249865,30.3216 17.0557336,30.2488007 17.0072,30.1032 L16.5912,28.8344 L14.1368,28.8344 L13.7208,30.1032 C13.6722664,30.2488007 13.5128014,30.3216 13.2424,30.3216 L12.8264,30.3216 C12.4034646,30.3216 12.192,30.2453341 12.192,30.0928 L12.192,30.0928 Z M14.584,27.4616 L16.144,27.4616 L15.5512,25.6104 L15.3952,24.9448 L15.3536,24.9448 C15.2911997,25.2706683 15.2392002,25.4925327 15.1976,25.6104 L14.584,27.4616 Z M20.616,29.9888 L20.616,24.3832 L18.9624,24.3832 C18.754399,24.3832 18.6504,24.2098684 18.6504,23.8632 L18.6504,23.5408 C18.6504,23.1941316 18.754399,23.0208 18.9624,23.0208 L23.8816,23.0208 C24.089601,23.0208 24.1936,23.1941316 24.1936,23.5408 L24.1936,23.8632 C24.1936,24.2098684 24.089601,24.3832 23.8816,24.3832 L22.228,24.3832 L22.228,29.9888 C22.228,30.2106678 22.0200021,30.3216 21.604,30.3216 L21.24,30.3216 C20.8239979,30.3216 20.616,30.2106678 20.616,29.9888 L20.616,29.9888 Z M24.9632,27.8672 L24.9632,23.3328 C24.9632,23.1109322 25.1711979,23 25.5872,23 L25.9408,23 C26.3568021,23 26.5648,23.1109322 26.5648,23.3328 L26.5648,27.7632 C26.5648,28.1306685 26.696532,28.4322655 26.96,28.668 C27.223468,28.9037345 27.5631979,29.0216 27.9792,29.0216 C28.3952021,29.0216 28.7366653,28.9037345 29.0036,28.668 C29.2705347,28.4322655 29.404,28.1306685 29.404,27.7632 L29.404,23.3328 C29.404,23.1109322 29.6119979,23 30.028,23 L30.3712,23 C30.7872021,23 30.9952,23.1109322 30.9952,23.3328 L30.9952,27.8672 C30.9952,28.6645373 30.731736,29.2833311 30.2048,29.7236 C29.677864,30.1638689 28.9360048,30.384 27.9792,30.384 C27.0223952,30.384 26.280536,30.1638689 25.7536,29.7236 C25.226664,29.2833311 24.9632,28.6645373 24.9632,27.8672 L24.9632,27.8672 Z M32.3992,29.9888 L32.3992,23.4368 C32.3992,23.1594653 32.5378653,23.0208 32.8152,23.0208 L34.8432,23.0208 C36.5696086,23.0208 37.4328,23.6725268 37.4328,24.976 C37.4328,25.3642686 37.3236011,25.7022652 37.1052,25.99 C36.8867989,26.2777348 36.5904019,26.4909326 36.216,26.6296 L36.216,26.6712 C36.347734,26.7197336 36.4829326,26.8358657 36.6216,27.0196 C36.7602674,27.2033343 36.8746662,27.4061322 36.9648,27.628 L37.88,29.916 C37.9146668,30.0061338 37.932,30.0719998 37.932,30.1136 C37.932,30.2522674 37.7240021,30.3216 37.308,30.3216 L36.8816,30.3216 C36.5349316,30.3216 36.3338669,30.2488007 36.2784,30.1032 L35.4568,28.0752 C35.3389327,27.8463989 35.2124007,27.6852005 35.0772,27.5916 C34.9419993,27.4979995 34.7184016,27.4512 34.4064,27.4512 L34.0008,27.4512 L34.0008,29.9888 C34.0008,30.2106678 33.7928021,30.3216 33.3768,30.3216 L33.0232,30.3216 C32.6071979,30.3216 32.3992,30.2106678 32.3992,29.9888 L32.3992,29.9888 Z M34.0008,26.068 L34.9888,26.068 C35.2037344,26.068 35.3909325,25.9813342 35.5504,25.808 C35.7098675,25.6346658 35.7896,25.4249346 35.7896,25.1788 C35.7896,24.9326654 35.7116008,24.738534 35.5556,24.5964 C35.3995992,24.454266 35.1864014,24.3832 34.916,24.3832 L34.0008,24.3832 L34.0008,26.068 Z M38.7432,29.8848 L38.7432,23.4368 C38.7432,23.1594653 38.8818653,23.0208 39.1592,23.0208 L42.9656,23.0208 C43.173601,23.0208 43.2776,23.1941316 43.2776,23.5408 L43.2776,23.8632 C43.2776,24.2098684 43.173601,24.3832 42.9656,24.3832 L40.3448,24.3832 L40.3448,25.8912 L42.6848,25.8912 C42.892801,25.8912 42.9968,26.0645316 42.9968,26.4112 L42.9968,26.7336 C42.9968,27.0802684 42.892801,27.2536 42.6848,27.2536 L40.3448,27.2536 L40.3448,28.9384 L42.976,28.9384 C43.184001,28.9384 43.288,29.1117316 43.288,29.4584 L43.288,29.7808 C43.288,30.1274684 43.184001,30.3008 42.976,30.3008 L39.1592,30.3008 C38.8818653,30.3008 38.7432,30.1621347 38.7432,29.8848 L38.7432,29.8848 Z M44.4216,29.8848 L44.4216,23.4368 C44.4216,23.1594653 44.5602653,23.0208 44.8376,23.0208 L47.1672,23.0208 C48.241872,23.0208 49.0651971,23.3345302 49.6372,23.962 C50.2092029,24.5894698 50.4952,25.4890608 50.4952,26.6608 C50.4952,27.8325392 50.2092029,28.7321302 49.6372,29.3596 C49.0651971,29.9870698 48.241872,30.3008 47.1672,30.3008 L44.8376,30.3008 C44.5602653,30.3008 44.4216,30.1621347 44.4216,29.8848 L44.4216,29.8848 Z M46.0336,28.9384 L47.1672,28.9384 C47.7218694,28.9384 48.1413319,28.7442686 48.4256,28.356 C48.7098681,27.9677314 48.852,27.4026704 48.852,26.6608 C48.852,25.9189296 48.7098681,25.3538686 48.4256,24.9656 C48.1413319,24.5773314 47.7218694,24.3832 47.1672,24.3832 L46.0336,24.3832 L46.0336,28.9384 Z" id="FEATURED-Copy" fill="#FFFFFF" transform="translate(26.466000, 26.692000) rotate(-45.000000) translate(-26.466000, -26.692000) "></path>
            </g>
        </g>
    </g>
</svg>